<svg class="w-5 fill-neutral-600 hover:fill-lime-400" viewBox="0 0 30 30" xmlns="http://www.w3.org/2000/svg">
<path d="M15 7.675C10.9464 7.675 7.67497 10.9464 7.67497 15C7.67497 19.0536 10.9464 22.325 15 22.325C19.0535 22.325 22.325 19.0536 22.325 15C22.325 10.9464 19.0535 7.675 15 7.675ZM15 19.7607C12.3785 19.7607 10.2393 17.6214 10.2393 15C10.2393 12.3786 12.3785 10.2393 15 10.2393C17.6214 10.2393 19.7607 12.3786 19.7607 15C19.7607 17.6214 17.6214 19.7607 15 19.7607ZM22.625 5.66786C21.6785 5.66786 20.9143 6.43214 20.9143 7.37857C20.9143 8.325 21.6785 9.08929 22.625 9.08929C23.5714 9.08929 24.3357 8.32857 24.3357 7.37857C24.336 7.15384 24.2919 6.93126 24.206 6.72358C24.1202 6.5159 23.9942 6.3272 23.8353 6.16829C23.6763 6.00937 23.4876 5.88338 23.28 5.7975C23.0723 5.71163 22.8497 5.66758 22.625 5.66786ZM29.2785 15C29.2785 13.0286 29.2964 11.075 29.1857 9.10714C29.075 6.82143 28.5535 4.79286 26.8821 3.12143C25.2071 1.44643 23.1821 0.928572 20.8964 0.817857C18.925 0.707143 16.9714 0.725 15.0035 0.725C13.0321 0.725 11.0785 0.707143 9.11068 0.817857C6.82497 0.928572 4.7964 1.45 3.12497 3.12143C1.44997 4.79643 0.932112 6.82143 0.821397 9.10714C0.710683 11.0786 0.72854 13.0321 0.72854 15C0.72854 16.9679 0.710683 18.925 0.821397 20.8929C0.932112 23.1786 1.45354 25.2071 3.12497 26.8786C4.79997 28.5536 6.82497 29.0714 9.11068 29.1821C11.0821 29.2929 13.0357 29.275 15.0035 29.275C16.975 29.275 18.9285 29.2929 20.8964 29.1821C23.1821 29.0714 25.2107 28.55 26.8821 26.8786C28.5571 25.2036 29.075 23.1786 29.1857 20.8929C29.3 18.925 29.2785 16.9714 29.2785 15ZM26.1357 23.4214C25.875 24.0714 25.5607 24.5571 25.0571 25.0571C24.5535 25.5607 24.0714 25.875 23.4214 26.1357C21.5428 26.8821 17.0821 26.7143 15 26.7143C12.9178 26.7143 8.45354 26.8821 6.57497 26.1393C5.92497 25.8786 5.43925 25.5643 4.93925 25.0607C4.43568 24.5571 4.1214 24.075 3.86068 23.425C3.11783 21.5429 3.28568 17.0821 3.28568 15C3.28568 12.9179 3.11783 8.45357 3.86068 6.575C4.1214 5.925 4.43568 5.43929 4.93925 4.93929C5.44283 4.43929 5.92497 4.12143 6.57497 3.86071C8.45354 3.11786 12.9178 3.28571 15 3.28571C17.0821 3.28571 21.5464 3.11786 23.425 3.86071C24.075 4.12143 24.5607 4.43571 25.0607 4.93929C25.5643 5.44286 25.8785 5.925 26.1393 6.575C26.8821 8.45357 26.7143 12.9179 26.7143 15C26.7143 17.0821 26.8821 21.5429 26.1357 23.4214Z"/>
</svg>
