<svg class="w-5 fill-neutral-600 hover:fill-lime-400" viewBox="0 0 30 30" xmlns="http://www.w3.org/2000/svg">
<path d="M28.1429 0.714294H1.85715C1.22501 0.714294 0.714294 1.22501 0.714294 1.85715V28.1429C0.714294 28.775 1.22501 29.2857 1.85715 29.2857H28.1429C28.775 29.2857 29.2857 28.775 29.2857 28.1429V1.85715C29.2857 1.22501 28.775 0.714294 28.1429 0.714294ZM9.18929 25.0607H4.95001V11.425H9.18929V25.0607ZM7.07144 9.56072C6.58546 9.56072 6.1104 9.41661 5.70632 9.14662C5.30225 8.87663 4.98731 8.49287 4.80133 8.04389C4.61536 7.5949 4.5667 7.10085 4.66151 6.62422C4.75632 6.14758 4.99034 5.70976 5.33398 5.36612C5.67761 5.02248 6.11543 4.78846 6.59207 4.69365C7.06871 4.59884 7.56276 4.6475 8.01175 4.83348C8.46073 5.01945 8.84448 5.33439 9.11448 5.73847C9.38447 6.14254 9.52858 6.6176 9.52858 7.10358C9.52501 8.46072 8.42501 9.56072 7.07144 9.56072ZM25.0607 25.0607H20.825V18.4286C20.825 16.8464 20.7964 14.8143 18.6214 14.8143C16.4179 14.8143 16.0786 16.5357 16.0786 18.3143V25.0607H11.8464V11.425H15.9107V13.2893H15.9679C16.5322 12.2179 17.9143 11.0857 19.9786 11.0857C24.2714 11.0857 25.0607 13.9107 25.0607 17.5822V25.0607Z"/>
</svg>
