<svg class="w-5 fill-neutral-600 hover:fill-lime-400" viewBox="0 0 32 26" xmlns="http://www.w3.org/2000/svg">
<path d="M30.8571 0.428558H1.14286C0.510714 0.428558 0 0.939273 0 1.57142V24.4286C0 25.0607 0.510714 25.5714 1.14286 25.5714H30.8571C31.4893 25.5714 32 25.0607 32 24.4286V1.57142C32 0.939273 31.4893 0.428558 30.8571 0.428558ZM27.9714 4.31784L16.7036 13.0857C16.425 13.3036 16.0357 13.3036 15.7571 13.0857L4.48571 4.31784C4.44323 4.28505 4.41206 4.23979 4.39659 4.1884C4.38112 4.137 4.38212 4.08206 4.39944 4.03126C4.41677 3.98046 4.44955 3.93636 4.49321 3.90513C4.53686 3.87391 4.58919 3.85712 4.64286 3.85713H27.8143C27.868 3.85712 27.9203 3.87391 27.9639 3.90513C28.0076 3.93636 28.0404 3.98046 28.0577 4.03126C28.075 4.08206 28.076 4.137 28.0606 4.1884C28.0451 4.23979 28.0139 4.28505 27.9714 4.31784Z"/>
</svg>
