<svg class="w-5 fill-neutral-600 hover:fill-lime-400" viewBox="0 0 30 26" xmlns="http://www.w3.org/2000/svg">
<path d="M29.8571 3.79643C28.7643 4.26786 27.575 4.60715 26.35 4.73929C27.6218 3.9837 28.5742 2.79 29.0286 1.38214C27.8351 2.09211 26.5277 2.58994 25.1643 2.85357C24.5944 2.24438 23.9053 1.75907 23.1396 1.42789C22.374 1.0967 21.5484 0.926731 20.7143 0.928573C17.3393 0.928573 14.625 3.66429 14.625 7.02143C14.625 7.49286 14.6821 7.96429 14.775 8.41786C9.72143 8.15357 5.21428 5.73929 2.21785 2.04286C1.67187 2.97541 1.38576 4.03724 1.38928 5.11786C1.38928 7.23214 2.46428 9.09643 4.10357 10.1929C3.13751 10.1548 2.19408 9.88928 1.35 9.41786V9.49286C1.35 12.4536 3.44285 14.9071 6.23214 15.4714C5.70842 15.6075 5.16966 15.6771 4.62857 15.6786C4.23214 15.6786 3.85714 15.6393 3.47857 15.5857C4.25 18 6.49643 19.7536 9.17143 19.8107C7.07857 21.45 4.45714 22.4143 1.61071 22.4143C1.1 22.4143 0.628568 22.3964 0.139282 22.3393C2.83928 24.0714 6.04285 25.0714 9.49285 25.0714C20.6929 25.0714 26.8214 15.7929 26.8214 7.73929C26.8214 7.475 26.8214 7.21072 26.8036 6.94643C27.9893 6.07857 29.0286 5.00357 29.8571 3.79643Z"/>
</svg>
